# Rhino

mtllib tex.mtl
g a
o object_1
usemtl mata
v -7.565 7.549 1.863
v -7.565 13.33 1.863
v -7.565 7.549 -5.104
v -7.565 13.33 -5.104
v -0.7515 7.549 1.863
v -0.7515 13.33 1.863
v -0.7515 7.549 -5.104
v -0.7515 13.33 -5.104
vt 7.971e-09 -3.619e-08
vt 7.971e-09 1
vt 1 -3.619e-08
vt 1 1
vt -2.261e-09 -3.619e-08
vt -2.261e-09 1
vt 1 -3.619e-08
vt 1 1
vt 4.179e-09 -3.619e-08
vt 4.179e-09 1
vt 1 -3.619e-08
vt 1 1
vt -2.655e-08 -3.619e-08
vt -2.655e-08 1
vt 1 -3.619e-08
vt 1 1
vt 1 -2.261e-09
vt 4.179e-09 -2.261e-09
vt 4.179e-09 1
vt 1 1
vt 7.971e-09 -2.261e-09
vt 1 -2.261e-09
vt 1 1
vt 7.971e-09 1
vn 0 0 1
vn 0 0 1
vn 0 0 1
vn 0 0 1
vn 1 0 0
vn 1 0 0
vn 1 0 0
vn 1 0 0
vn 0 0 -1
vn 0 0 -1
vn 0 0 -1
vn 0 0 -1
vn -1 0 0
vn -1 0 0
vn -1 0 0
vn -1 0 0
vn 0 -1 0
vn 0 -1 0
vn 0 -1 0
vn 0 -1 0
vn 0 1 0
vn 0 1 0
vn 0 1 0
vn 0 1 0
f 1/1/1 5/3/3 6/4/4 2/2/2
f 5/5/5 7/7/7 8/8/8 6/6/6
f 7/9/9 3/11/11 4/12/12 8/10/10
f 3/13/13 1/15/15 2/16/16 4/14/14
f 5/18/18 1/17/17 3/20/20
f 3/20/20 7/19/19 5/18/18
f 6/22/22 4/24/24 2/21/21
f 4/24/24 6/22/22 8/23/23
g b
o object_2
usemtl matb
v -4.145 0 1.863
v -4.145 5.783 1.863
v -4.145 0 -5.104
v -4.145 5.783 -5.104
v 2.668 0 1.863
v 2.668 5.783 1.863
v 2.668 0 -5.104
v 2.668 5.783 -5.104
vt 2.937e-08 0
vt 2.937e-08 1
vt 1 0
vt 1 1
vt -2.261e-09 0
vt -2.261e-09 1
vt 1 0
vt 1 1
vt -8.471e-09 0
vt -8.471e-09 1
vt 1 0
vt 1 1
vt -2.655e-08 0
vt -2.655e-08 1
vt 1 0
vt 1 1
vt 1 -2.261e-09
vt -8.471e-09 -2.261e-09
vt -8.471e-09 1
vt 1 1
vt 2.937e-08 -2.261e-09
vt 1 -2.261e-09
vt 1 1
vt 2.937e-08 1
vn 0 0 1
vn 0 0 1
vn 0 0 1
vn 0 0 1
vn 1 0 0
vn 1 0 0
vn 1 0 0
vn 1 0 0
vn 0 0 -1
vn 0 0 -1
vn 0 0 -1
vn 0 0 -1
vn -1 0 0
vn -1 0 0
vn -1 0 0
vn -1 0 0
vn 0 -1 0
vn 0 -1 0
vn 0 -1 0
vn 0 -1 0
vn 0 1 0
vn 0 1 0
vn 0 1 0
vn 0 1 0
f 9/25/25 13/27/27 14/28/28 10/26/26
f 13/29/29 15/31/31 16/32/32 14/30/30
f 15/33/33 11/35/35 12/36/36 16/34/34
f 11/37/37 9/39/39 10/40/40 12/38/38
f 13/42/42 9/41/41 11/44/44
f 11/44/44 15/43/43 13/42/42
f 14/46/46 12/48/48 10/45/45
f 12/48/48 14/46/46 16/47/47
